<svg xmlns="http://www.w3.org/2000/svg" xmlns:xlink="http://www.w3.org/1999/xlink" id="svg" version="1.1" width="400" height="393.7888198757764" viewBox="0, 0, 400,393.7888198757764 undefined"><g id="svgg"><path id="path0" d="M217.905 36.407 C 217.782 36.533,215.831 36.820,213.570 37.044 C 211.308 37.269,208.571 37.619,207.488 37.824 C 206.404 38.028,204.399 38.378,203.033 38.602 C 201.667 38.826,200.216 39.188,199.808 39.406 C 199.400 39.624,198.656 39.802,198.154 39.801 C 197.652 39.800,196.443 40.056,195.468 40.369 C 194.493 40.682,191.655 41.583,189.163 42.370 C 180.500 45.106,168.779 50.195,163.788 53.388 C 162.593 54.153,161.489 54.778,161.335 54.778 C 161.181 54.778,159.749 55.665,158.152 56.749 C 156.554 57.833,155.148 58.719,155.026 58.719 C 154.904 58.719,154.398 59.030,153.901 59.409 C 153.404 59.788,152.603 60.365,152.120 60.690 C 149.420 62.508,144.061 66.665,141.569 68.874 C 139.993 70.271,138.154 71.883,137.482 72.456 C 135.579 74.077,128.516 81.346,127.559 82.669 C 127.086 83.321,125.584 85.160,124.221 86.755 C 122.858 88.350,121.609 89.833,121.445 90.049 C 121.281 90.266,120.257 91.596,119.170 93.005 C 118.084 94.414,116.594 96.542,115.860 97.734 C 115.127 98.926,114.058 100.522,113.485 101.281 C 112.913 102.039,112.016 103.452,111.493 104.420 C 110.970 105.387,109.967 107.066,109.265 108.149 C 108.562 109.232,107.088 111.899,105.989 114.074 C 104.890 116.250,103.841 118.296,103.657 118.621 C 103.348 119.169,102.191 122.002,100.118 127.291 C 99.650 128.483,99.118 129.813,98.934 130.246 C 98.627 130.969,98.298 131.942,96.404 137.734 C 96.050 138.818,95.761 140.068,95.762 140.512 C 95.763 140.957,95.596 141.489,95.392 141.695 C 94.839 142.252,92.961 149.995,92.202 154.846 C 91.985 156.238,91.657 157.568,91.475 157.802 C 91.292 158.035,91.036 159.423,90.906 160.885 C 90.777 162.346,90.486 163.886,90.261 164.307 C 90.036 164.727,89.849 166.014,89.845 167.166 C 89.840 168.318,89.576 171.034,89.258 173.202 C 88.940 175.369,88.576 180.601,88.450 184.828 C 88.324 189.054,87.967 194.218,87.657 196.303 C 87.347 198.388,87.094 201.636,87.094 203.521 C 87.094 205.406,86.898 207.314,86.659 207.761 C 86.419 208.208,86.065 210.192,85.872 212.169 C 85.308 217.948,84.318 222.289,82.912 225.155 C 82.611 225.769,82.365 226.451,82.365 226.672 C 82.365 227.068,81.876 228.276,80.325 231.715 C 77.538 237.894,69.857 245.226,62.069 249.143 C 61.419 249.470,58.759 250.816,56.158 252.135 C 51.764 254.363,49.686 255.250,46.700 256.174 C 46.049 256.375,45.163 256.711,44.729 256.920 C 44.296 257.129,42.463 257.755,40.657 258.309 C 32.591 260.787,29.912 263.178,27.172 270.345 C 25.124 275.702,29.046 284.678,35.469 289.334 C 37.074 290.498,42.712 293.202,43.532 293.202 C 43.840 293.202,44.188 293.359,44.307 293.550 C 44.794 294.339,55.730 297.137,58.374 297.149 C 59.106 297.152,60.414 297.410,61.281 297.723 C 62.315 298.095,64.619 298.306,67.980 298.337 C 70.798 298.362,74.079 298.525,75.271 298.699 C 76.463 298.874,79.123 298.857,81.182 298.663 C 83.241 298.469,86.611 298.296,88.670 298.279 C 90.729 298.262,93.123 298.019,93.990 297.739 C 94.857 297.459,96.525 297.127,97.696 297.001 C 101.089 296.636,108.746 294.795,110.445 293.936 C 110.826 293.744,112.447 293.159,114.047 292.637 C 115.647 292.115,117.287 291.522,117.690 291.320 C 118.094 291.118,119.044 290.676,119.803 290.338 C 124.973 288.029,128.123 286.415,129.160 285.542 C 129.820 284.987,130.479 284.532,130.625 284.532 C 130.771 284.532,131.491 284.073,132.226 283.513 C 134.482 281.792,134.848 282.743,133.756 287.488 C 132.626 292.390,131.886 294.950,131.247 296.158 C 130.570 297.436,129.210 299.583,128.875 299.901 C 128.761 300.010,128.170 300.833,127.561 301.731 C 125.002 305.505,116.912 312.293,110.260 316.248 C 107.941 317.627,102.038 321.499,100.830 322.435 C 100.040 323.046,99.268 323.547,99.114 323.547 C 98.482 323.547,93.588 328.626,92.279 330.640 C 90.256 333.753,90.125 340.466,92.014 344.195 C 94.054 348.219,100.875 353.892,103.676 353.892 C 103.919 353.892,104.676 354.142,105.359 354.448 C 113.888 358.270,137.993 357.718,148.374 353.464 C 148.808 353.286,149.783 352.969,150.542 352.759 C 151.300 352.549,152.897 351.989,154.089 351.514 C 155.281 351.039,156.738 350.562,157.327 350.455 C 157.916 350.347,158.603 350.012,158.853 349.711 C 159.104 349.409,159.486 349.163,159.702 349.163 C 160.139 349.163,168.357 345.201,168.670 344.840 C 168.778 344.715,170.906 343.384,173.399 341.882 C 177.425 339.456,181.045 337.087,182.247 336.092 C 182.474 335.904,183.901 334.830,185.419 333.705 C 188.091 331.724,192.250 328.354,194.303 326.506 C 194.854 326.010,195.961 325.159,196.762 324.615 C 198.915 323.155,203.393 319.061,211.187 311.430 C 224.642 298.257,230.276 296.805,231.707 306.144 C 232.585 311.873,229.925 318.591,223.256 327.488 C 221.333 330.054,219.633 332.884,217.460 337.143 C 208.243 355.201,217.477 368.991,236.847 366.096 C 243.272 365.136,244.221 364.949,246.502 364.190 C 249.627 363.151,251.437 362.447,252.486 361.860 C 252.960 361.596,253.521 361.379,253.734 361.379 C 254.275 361.379,262.118 356.618,265.277 354.373 C 276.353 346.498,289.373 332.717,298.128 319.601 C 299.645 317.328,300.992 315.379,301.121 315.271 C 301.431 315.010,307.883 304.051,308.822 302.189 C 311.440 297.001,313.461 292.670,316.049 286.700 C 316.519 285.616,317.068 284.421,317.270 284.045 C 317.471 283.668,317.635 283.163,317.635 282.922 C 317.635 282.681,317.916 281.836,318.259 281.045 C 318.603 280.253,319.135 279.024,319.442 278.312 C 319.749 277.600,320.006 276.802,320.013 276.538 C 320.021 276.275,320.369 275.350,320.788 274.483 C 321.207 273.616,321.556 272.622,321.563 272.275 C 321.570 271.927,322.032 270.420,322.589 268.925 C 323.145 267.430,324.046 264.700,324.590 262.857 C 325.133 261.015,325.935 258.443,326.371 257.143 C 326.807 255.842,327.389 253.803,327.665 252.611 C 328.311 249.821,330.163 242.516,330.613 240.985 C 330.804 240.335,331.172 238.562,331.432 237.044 C 331.692 235.527,332.080 233.842,332.296 233.300 C 332.511 232.759,332.840 231.517,333.027 230.542 C 333.214 229.567,333.647 227.527,333.990 226.010 C 334.332 224.493,334.772 221.921,334.968 220.296 C 335.164 218.670,335.523 216.365,335.767 215.172 C 336.582 211.186,337.405 205.942,337.716 202.759 C 337.885 201.025,338.220 198.631,338.459 197.438 C 338.699 196.246,339.087 192.966,339.322 190.148 C 339.556 187.330,339.906 183.517,340.098 181.675 C 341.458 168.665,341.253 143.116,339.704 132.611 C 339.481 131.094,339.197 128.877,339.074 127.685 C 338.950 126.493,338.599 124.849,338.292 124.031 C 337.985 123.214,337.734 122.095,337.734 121.544 C 337.734 120.993,337.483 119.711,337.177 118.695 C 336.871 117.679,336.238 115.517,335.771 113.892 C 335.304 112.266,334.685 110.138,334.396 109.163 C 333.689 106.779,329.743 97.807,327.897 94.384 C 325.684 90.282,320.010 81.789,317.762 79.212 C 317.289 78.670,316.491 77.755,315.988 77.180 C 311.147 71.635,304.613 65.333,300.812 62.542 C 299.986 61.936,297.803 60.330,295.961 58.973 C 290.603 55.027,275.281 46.536,273.435 46.489 C 273.144 46.482,272.197 46.133,271.330 45.714 C 270.463 45.295,269.603 44.947,269.419 44.939 C 269.235 44.932,268.526 44.684,267.843 44.388 C 264.965 43.143,263.285 42.545,260.493 41.774 C 258.867 41.326,256.916 40.757,256.158 40.512 C 254.771 40.062,253.941 39.864,248.867 38.776 C 241.913 37.283,235.809 36.641,226.207 36.389 C 221.764 36.272,218.028 36.281,217.905 36.407 M233.909 117.326 C 234.333 117.541,235.382 118.053,236.241 118.464 C 237.986 119.300,241.581 122.710,242.509 124.409 C 243.173 125.624,243.860 127.055,244.366 128.276 C 246.674 133.842,246.649 148.087,244.323 153.103 C 244.122 153.537,243.777 154.335,243.556 154.877 C 238.648 166.928,220.594 167.674,214.792 156.066 C 211.105 148.687,210.262 135.415,213.064 128.867 C 216.247 121.429,219.210 118.605,225.616 116.902 C 226.847 116.574,233.050 116.892,233.909 117.326 M294.642 117.241 C 295.420 117.567,296.354 117.833,296.717 117.833 C 297.664 117.833,300.631 120.302,302.483 122.632 C 308.584 130.308,308.310 152.002,302.026 158.779 C 301.508 159.338,301.084 159.912,301.084 160.056 C 301.084 160.200,300.153 160.929,299.015 161.676 C 288.730 168.429,276.185 161.978,274.268 148.950 C 274.030 147.333,273.689 145.026,273.511 143.824 C 272.769 138.829,274.689 128.954,277.339 124.138 C 278.561 121.918,282.959 117.856,284.158 117.840 C 284.494 117.836,284.937 117.670,285.143 117.472 C 286.094 116.555,292.621 116.397,294.642 117.241 " stroke="none" fill="#b9a3de" fill-rule="evenodd" data-index="0" style="opacity: 1;"/><path id="path2" d="M222.562 35.759 C 223.700 35.838,225.562 35.838,226.700 35.759 C 227.837 35.679,226.906 35.614,224.631 35.614 C 222.355 35.614,221.424 35.679,222.562 35.759 M341.388 165.911 C 341.388 166.887,341.465 167.286,341.559 166.798 C 341.653 166.310,341.653 165.512,341.559 165.025 C 341.465 164.537,341.388 164.936,341.388 165.911 M79.704 299.385 C 80.084 299.484,80.704 299.484,81.084 299.385 C 81.463 299.286,81.153 299.205,80.394 299.205 C 79.635 299.205,79.325 299.286,79.704 299.385 M208.655 314.581 L 206.700 316.650 208.768 314.695 C 209.906 313.619,210.837 312.688,210.837 312.626 C 210.837 312.332,210.472 312.659,208.655 314.581 M120.114 357.731 C 121.477 357.808,123.605 357.807,124.843 357.729 C 126.081 357.651,124.966 357.588,122.365 357.589 C 119.764 357.590,118.751 357.653,120.114 357.731 " stroke="none" fill="#9490a8" fill-rule="evenodd" data-index="2"/><path id="path3" d="M222.759 35.346 C 223.138 35.445,223.759 35.445,224.138 35.346 C 224.517 35.246,224.207 35.165,223.448 35.165 C 222.690 35.165,222.379 35.246,222.759 35.346 M217.635 35.740 C 218.015 35.839,218.635 35.839,219.015 35.740 C 219.394 35.641,219.084 35.559,218.325 35.559 C 217.567 35.559,217.256 35.641,217.635 35.740 M231.034 35.740 C 231.414 35.839,232.034 35.839,232.414 35.740 C 232.793 35.641,232.483 35.559,231.724 35.559 C 230.966 35.559,230.655 35.641,231.034 35.740 M212.322 36.148 C 213.031 36.235,214.095 36.234,214.687 36.144 C 215.279 36.054,214.700 35.982,213.399 35.984 C 212.099 35.986,211.614 36.060,212.322 36.148 M236.362 36.148 C 237.070 36.235,238.134 36.234,238.726 36.144 C 239.318 36.054,238.739 35.982,237.438 35.984 C 236.138 35.986,235.653 36.060,236.362 36.148 M204.532 37.456 C 204.100 37.749,204.260 37.785,205.123 37.592 C 206.572 37.268,206.887 37.042,205.878 37.050 C 205.463 37.054,204.857 37.236,204.532 37.456 M178.522 45.123 C 177.235 45.859,177.685 45.867,179.364 45.139 C 180.093 44.822,180.424 44.562,180.099 44.561 C 179.773 44.561,179.064 44.813,178.522 45.123 M148.557 62.294 L 147.192 63.505 148.670 62.445 C 149.976 61.508,150.401 61.084,150.034 61.084 C 149.972 61.084,149.307 61.629,148.557 62.294 M305.813 66.010 C 306.548 66.768,307.238 67.389,307.347 67.389 C 307.455 67.389,306.942 66.768,306.207 66.010 C 305.472 65.251,304.781 64.631,304.673 64.631 C 304.565 64.631,305.078 65.251,305.813 66.010 M132.808 75.862 C 131.851 76.837,131.156 77.635,131.264 77.635 C 131.373 77.635,132.245 76.837,133.202 75.862 C 134.159 74.887,134.854 74.089,134.745 74.089 C 134.637 74.089,133.765 74.887,132.808 75.862 M124.117 85.419 L 122.759 86.897 124.236 85.538 C 125.049 84.792,125.714 84.126,125.714 84.061 C 125.714 83.760,125.381 84.043,124.117 85.419 M327.010 91.584 C 327.598 92.537,328.149 93.250,328.235 93.168 C 328.409 93.004,326.397 89.852,326.118 89.852 C 326.021 89.852,326.423 90.632,327.010 91.584 M113.983 98.818 C 112.963 100.291,112.631 100.887,112.831 100.887 C 112.923 100.887,113.468 100.177,114.042 99.310 C 115.208 97.548,115.157 97.122,113.983 98.818 M110.224 104.729 C 108.811 106.999,108.708 107.192,108.908 107.192 C 109.011 107.192,109.641 106.305,110.307 105.222 C 110.974 104.138,111.435 103.251,111.331 103.251 C 111.228 103.251,110.729 103.916,110.224 104.729 M333.427 104.631 C 333.427 104.847,333.680 105.468,333.990 106.010 C 334.300 106.552,334.553 106.818,334.553 106.601 C 334.553 106.384,334.300 105.764,333.990 105.222 C 333.680 104.680,333.427 104.414,333.427 104.631 M228.478 117.323 C 228.968 117.417,229.677 117.414,230.054 117.315 C 230.431 117.216,230.030 117.139,229.163 117.144 C 228.296 117.148,227.987 117.229,228.478 117.323 M289.564 117.330 C 290.272 117.418,291.336 117.416,291.928 117.326 C 292.520 117.236,291.941 117.164,290.640 117.166 C 289.340 117.169,288.855 117.242,289.564 117.330 M300.099 120.985 C 300.945 121.852,301.726 122.562,301.835 122.562 C 301.943 122.562,301.339 121.852,300.493 120.985 C 299.646 120.118,298.865 119.409,298.756 119.409 C 298.648 119.409,299.252 120.118,300.099 120.985 M339.418 126.108 C 339.418 127.084,339.495 127.483,339.588 126.995 C 339.682 126.507,339.682 125.709,339.588 125.222 C 339.495 124.734,339.418 125.133,339.418 126.108 M213.256 130.707 C 213.226 131.177,213.100 131.886,212.975 132.283 C 212.760 132.966,212.772 132.968,213.198 132.304 C 213.446 131.918,213.572 131.209,213.479 130.728 C 213.309 129.853,213.309 129.853,213.256 130.707 M274.787 133.990 C 274.787 134.966,274.864 135.365,274.958 134.877 C 275.052 134.389,275.052 133.591,274.958 133.103 C 274.864 132.616,274.787 133.015,274.787 133.990 M274.385 138.522 C 274.389 139.389,274.470 139.697,274.564 139.207 C 274.659 138.717,274.655 138.008,274.556 137.631 C 274.458 137.254,274.381 137.655,274.385 138.522 M245.652 140.493 C 245.654 142.227,245.723 142.887,245.806 141.960 C 245.890 141.033,245.888 139.614,245.804 138.807 C 245.719 138.000,245.651 138.759,245.652 140.493 M212.149 140.887 C 212.151 142.404,212.222 142.976,212.307 142.159 C 212.393 141.341,212.391 140.100,212.304 139.400 C 212.217 138.700,212.147 139.369,212.149 140.887 M341.425 143.645 C 341.426 145.813,341.492 146.649,341.572 145.504 C 341.652 144.359,341.651 142.585,341.570 141.563 C 341.489 140.541,341.424 141.478,341.425 143.645 M341.840 157.635 C 341.840 161.862,341.898 163.591,341.969 161.478 C 342.040 159.365,342.040 155.906,341.969 153.793 C 341.898 151.680,341.840 153.409,341.840 157.635 M278.970 158.360 C 279.408 158.975,280.078 159.729,280.459 160.035 C 280.839 160.341,280.552 159.837,279.820 158.916 C 278.316 157.024,277.759 156.660,278.970 158.360 M239.191 159.901 L 237.833 161.379 239.310 160.021 C 240.686 158.757,240.969 158.424,240.668 158.424 C 240.603 158.424,239.938 159.089,239.191 159.901 M217.896 159.344 C 218.472 160.062,220.690 161.751,220.690 161.472 C 220.690 161.385,219.936 160.715,219.015 159.983 C 218.094 159.251,217.590 158.964,217.896 159.344 M288.374 163.441 C 289.296 163.524,290.803 163.524,291.724 163.441 C 292.645 163.358,291.892 163.290,290.049 163.290 C 288.207 163.290,287.453 163.358,288.374 163.441 M341.418 173.005 C 341.418 174.847,341.486 175.601,341.569 174.680 C 341.652 173.759,341.652 172.251,341.569 171.330 C 341.486 170.409,341.418 171.163,341.418 173.005 M340.978 179.704 C 340.978 180.463,341.059 180.773,341.158 180.394 C 341.257 180.015,341.257 179.394,341.158 179.015 C 341.059 178.635,340.978 178.946,340.978 179.704 M87.610 186.207 C 87.612 187.507,87.686 187.992,87.773 187.284 C 87.861 186.575,87.859 185.511,87.769 184.919 C 87.679 184.327,87.608 184.906,87.610 186.207 M340.206 189.163 C 340.206 190.138,340.283 190.537,340.377 190.049 C 340.471 189.562,340.471 188.764,340.377 188.276 C 340.283 187.788,340.206 188.187,340.206 189.163 M87.206 192.512 C 87.209 193.596,87.286 193.993,87.376 193.394 C 87.467 192.795,87.465 191.908,87.371 191.423 C 87.277 190.938,87.203 191.429,87.206 192.512 M339.432 195.665 C 339.435 196.966,339.508 197.450,339.596 196.742 C 339.684 196.033,339.682 194.969,339.592 194.377 C 339.502 193.785,339.430 194.365,339.432 195.665 M338.241 203.941 C 338.244 205.025,338.320 205.421,338.411 204.822 C 338.501 204.223,338.499 203.336,338.405 202.852 C 338.312 202.367,338.238 202.857,338.241 203.941 M85.617 209.852 C 85.621 210.719,85.702 211.027,85.796 210.537 C 85.890 210.047,85.887 209.338,85.788 208.961 C 85.689 208.584,85.612 208.985,85.617 209.852 M337.431 210.049 C 337.431 210.808,337.512 211.118,337.612 210.739 C 337.711 210.360,337.711 209.739,337.612 209.360 C 337.512 208.980,337.431 209.291,337.431 210.049 M336.643 214.778 C 336.643 215.537,336.724 215.847,336.823 215.468 C 336.923 215.089,336.923 214.468,336.823 214.089 C 336.724 213.709,336.643 214.020,336.643 214.778 M335.989 217.762 C 335.844 218.340,335.801 218.888,335.894 218.981 C 335.987 219.074,336.182 218.677,336.327 218.100 C 336.471 217.522,336.514 216.974,336.421 216.881 C 336.328 216.788,336.134 217.185,335.989 217.762 M335.469 222.069 C 335.473 222.936,335.554 223.244,335.648 222.754 C 335.742 222.264,335.739 221.554,335.640 221.178 C 335.542 220.801,335.464 221.202,335.469 222.069 M70.915 242.266 L 69.557 243.744 71.034 242.386 C 72.410 241.122,72.694 240.788,72.393 240.788 C 72.327 240.788,71.662 241.453,70.915 242.266 M35.369 259.142 C 33.841 259.971,34.015 260.257,35.567 259.467 C 37.052 258.712,37.315 258.516,36.814 258.538 C 36.616 258.547,35.966 258.818,35.369 259.142 M133.355 284.652 C 133.315 285.824,133.340 285.849,133.717 285.012 C 133.963 284.466,133.980 283.971,133.761 283.752 C 133.542 283.534,133.382 283.889,133.355 284.652 M314.941 290.263 C 314.281 291.712,314.407 292.022,315.121 290.704 C 315.454 290.089,315.653 289.512,315.563 289.422 C 315.473 289.331,315.193 289.710,314.941 290.263 M43.350 294.187 C 43.892 294.497,44.512 294.750,44.729 294.750 C 44.946 294.750,44.680 294.497,44.138 294.187 C 43.596 293.877,42.975 293.624,42.759 293.624 C 42.542 293.624,42.808 293.877,43.350 294.187 M58.424 298.203 C 58.803 298.302,59.424 298.302,59.803 298.203 C 60.182 298.104,59.872 298.022,59.113 298.022 C 58.355 298.022,58.044 298.104,58.424 298.203 M68.670 298.991 C 69.049 299.090,69.670 299.090,70.049 298.991 C 70.429 298.892,70.118 298.811,69.360 298.811 C 68.601 298.811,68.291 298.892,68.670 298.991 M71.823 299.385 C 72.202 299.484,72.823 299.484,73.202 299.385 C 73.581 299.286,73.271 299.205,72.512 299.205 C 71.754 299.205,71.443 299.286,71.823 299.385 M122.562 305.914 C 120.719 307.687,119.744 308.757,120.394 308.293 C 121.568 307.455,126.450 302.646,126.096 302.676 C 125.994 302.684,124.404 304.141,122.562 305.914 M215.361 308.276 L 211.823 311.921 215.468 308.383 C 218.854 305.096,219.293 304.631,219.007 304.631 C 218.948 304.631,217.307 306.271,215.361 308.276 M231.065 308.374 C 231.067 309.892,231.138 310.464,231.224 309.646 C 231.309 308.829,231.307 307.587,231.220 306.888 C 231.133 306.188,231.064 306.857,231.065 308.374 M230.459 312.325 C 230.337 312.753,230.117 313.458,229.970 313.892 C 229.824 314.325,229.992 314.181,230.345 313.572 C 230.697 312.963,230.917 312.259,230.833 312.006 C 230.749 311.754,230.580 311.898,230.459 312.325 M208.659 314.975 L 205.911 317.833 208.768 315.084 C 211.422 312.532,211.806 312.118,211.517 312.118 C 211.457 312.118,210.171 313.404,208.659 314.975 M203.153 319.846 L 201.576 321.257 203.251 320.004 C 204.693 318.926,205.213 318.407,204.828 318.430 C 204.773 318.433,204.020 319.070,203.153 319.846 M94.766 326.404 L 92.414 328.867 94.877 326.515 C 97.165 324.330,97.520 323.941,97.229 323.941 C 97.168 323.941,96.060 325.049,94.766 326.404 M194.458 327.192 L 193.300 328.473 194.581 327.315 C 195.775 326.237,196.043 325.911,195.739 325.911 C 195.671 325.911,195.095 326.488,194.458 327.192 M286.291 335.862 L 284.335 337.931 286.404 335.975 C 288.326 334.158,288.654 333.793,288.360 333.793 C 288.297 333.793,287.366 334.724,286.291 335.862 M212.937 350.542 C 212.939 352.059,213.010 352.632,213.095 351.814 C 213.181 350.996,213.179 349.755,213.092 349.055 C 213.005 348.356,212.935 349.025,212.937 350.542 M272.882 349.261 L 271.724 350.542 273.005 349.384 C 273.709 348.748,274.286 348.171,274.286 348.104 C 274.286 347.799,273.961 348.067,272.882 349.261 M136.655 356.929 C 137.145 357.023,137.854 357.020,138.231 356.921 C 138.608 356.822,138.207 356.745,137.340 356.750 C 136.473 356.754,136.165 356.835,136.655 356.929 M133.005 357.438 C 131.932 357.711,131.914 357.741,132.808 357.758 C 133.350 357.769,134.148 357.625,134.581 357.438 C 135.553 357.021,134.646 357.021,133.005 357.438 M217.340 362.167 C 218.186 363.034,218.968 363.744,219.076 363.744 C 219.185 363.744,218.581 363.034,217.734 362.167 C 216.887 361.300,216.106 360.591,215.998 360.591 C 215.889 360.591,216.493 361.300,217.340 362.167 M240.887 366.380 C 241.266 366.479,241.887 366.479,242.266 366.380 C 242.645 366.281,242.335 366.200,241.576 366.200 C 240.818 366.200,240.507 366.281,240.887 366.380 M230.049 367.189 C 231.621 367.264,234.192 367.264,235.764 367.189 C 237.335 367.114,236.049 367.053,232.906 367.053 C 229.764 367.053,228.478 367.114,230.049 367.189 " stroke="none" fill="#aba7bc" fill-rule="evenodd" data-index="3"/><path id="path4" d="M243.453 37.323 C 243.943 37.417,244.652 37.414,245.029 37.315 C 245.406 37.216,245.005 37.139,244.138 37.144 C 243.271 37.148,242.963 37.229,243.453 37.323 M340.190 132.808 C 340.190 133.567,340.271 133.877,340.370 133.498 C 340.469 133.118,340.469 132.498,340.370 132.118 C 340.271 131.739,340.190 132.049,340.190 132.808 M341.005 140.690 C 341.005 141.882,341.079 142.369,341.169 141.773 C 341.259 141.177,341.259 140.202,341.169 139.606 C 341.079 139.010,341.005 139.498,341.005 140.690 M306.723 141.675 C 306.725 142.975,306.799 143.460,306.887 142.752 C 306.974 142.043,306.972 140.979,306.883 140.387 C 306.793 139.795,306.721 140.374,306.723 141.675 M274.004 141.675 C 274.007 142.759,274.084 143.155,274.174 142.556 C 274.265 141.957,274.263 141.070,274.169 140.586 C 274.075 140.101,274.001 140.591,274.004 141.675 M212.119 144.828 C 212.123 145.695,212.204 146.003,212.298 145.513 C 212.393 145.022,212.389 144.313,212.290 143.936 C 212.192 143.560,212.115 143.961,212.119 144.828 M289.167 163.826 C 289.657 163.920,290.367 163.916,290.744 163.818 C 291.120 163.719,290.719 163.642,289.852 163.646 C 288.985 163.651,288.677 163.731,289.167 163.826 M341.372 168.670 C 341.372 169.429,341.453 169.739,341.552 169.360 C 341.652 168.980,341.652 168.360,341.552 167.980 C 341.453 167.601,341.372 167.911,341.372 168.670 M341.005 176.552 C 341.005 177.744,341.079 178.232,341.169 177.635 C 341.259 177.039,341.259 176.064,341.169 175.468 C 341.079 174.872,341.005 175.360,341.005 176.552 M340.211 185.813 C 340.214 186.897,340.291 187.293,340.381 186.694 C 340.472 186.095,340.469 185.208,340.376 184.724 C 340.282 184.239,340.208 184.729,340.211 185.813 M87.587 189.754 C 87.591 190.621,87.672 190.929,87.766 190.439 C 87.861 189.949,87.857 189.239,87.758 188.862 C 87.660 188.486,87.583 188.887,87.587 189.754 M30.911 262.562 L 29.754 263.842 31.034 262.685 C 32.228 261.606,32.496 261.281,32.192 261.281 C 32.124 261.281,31.548 261.857,30.911 262.562 M63.744 298.610 C 64.448 298.698,65.601 298.698,66.305 298.610 C 67.010 298.523,66.433 298.451,65.025 298.451 C 63.616 298.451,63.039 298.523,63.744 298.610 M89.367 298.611 C 90.075 298.698,91.139 298.697,91.731 298.607 C 92.323 298.517,91.744 298.445,90.443 298.447 C 89.143 298.449,88.658 298.523,89.367 298.611 M115.768 357.717 C 116.258 357.811,116.968 357.808,117.344 357.709 C 117.721 357.611,117.320 357.533,116.453 357.538 C 115.586 357.542,115.278 357.623,115.768 357.717 M127.972 357.723 C 128.671 357.810,129.912 357.811,130.730 357.726 C 131.548 357.641,130.975 357.569,129.458 357.568 C 127.941 357.566,127.272 357.636,127.972 357.723 " stroke="none" fill="#9c97ac" fill-rule="evenodd" data-index="4"/><path id="path5" d="M213.793 36.448 C 208.568 37.182,205.464 37.709,203.547 38.187 L 201.970 38.581 203.547 38.424 C 204.414 38.337,206.099 38.083,207.291 37.859 C 218.965 35.666,236.204 36.045,248.867 38.773 C 254.017 39.883,254.777 40.064,256.158 40.512 C 256.916 40.757,258.867 41.326,260.493 41.774 C 263.285 42.545,264.965 43.143,267.843 44.388 C 268.526 44.684,269.235 44.932,269.419 44.939 C 269.603 44.947,270.463 45.295,271.330 45.714 C 272.197 46.133,273.144 46.482,273.435 46.489 C 275.281 46.536,290.603 55.027,295.961 58.973 C 297.803 60.330,299.986 61.936,300.812 62.542 C 304.613 65.333,311.147 71.635,315.988 77.180 C 316.491 77.755,317.289 78.670,317.762 79.212 C 320.010 81.789,325.684 90.282,327.897 94.384 C 329.743 97.807,333.689 106.779,334.396 109.163 C 334.685 110.138,335.304 112.266,335.771 113.892 C 336.238 115.517,336.871 117.679,337.177 118.695 C 337.483 119.711,337.734 120.993,337.734 121.544 C 337.734 122.095,337.985 123.214,338.291 124.031 C 338.598 124.849,338.975 126.670,339.130 128.079 C 339.681 133.093,340.046 134.981,339.892 132.020 C 339.700 128.318,339.106 124.441,338.582 123.461 C 338.332 122.995,338.128 122.141,338.128 121.564 C 338.128 117.479,331.823 100.214,327.844 93.403 C 325.450 89.305,322.990 85.354,322.399 84.657 C 322.157 84.371,321.309 83.251,320.515 82.167 C 303.943 59.549,274.022 42.025,244.138 37.437 C 242.837 37.238,240.621 36.892,239.212 36.669 C 234.761 35.966,218.250 35.823,213.793 36.448 M199.409 39.015 C 199.084 39.225,198.387 39.400,197.860 39.403 C 197.334 39.406,195.738 39.771,194.313 40.214 C 174.962 46.231,166.100 50.534,149.948 61.760 C 147.419 63.518,142.908 67.200,142.283 68.017 C 141.967 68.431,142.322 68.217,143.071 67.543 C 144.316 66.423,150.007 62.112,152.120 60.690 C 152.603 60.365,153.404 59.788,153.901 59.409 C 154.398 59.030,154.904 58.719,155.026 58.719 C 155.148 58.719,156.554 57.833,158.152 56.749 C 159.749 55.665,161.181 54.778,161.335 54.778 C 161.489 54.778,162.593 54.153,163.788 53.388 C 168.779 50.195,180.500 45.106,189.163 42.370 C 191.655 41.583,194.493 40.682,195.468 40.369 C 196.443 40.056,197.596 39.797,198.030 39.795 C 198.463 39.793,199.527 39.536,200.394 39.223 C 201.656 38.768,201.774 38.653,200.985 38.644 C 200.443 38.638,199.734 38.805,199.409 39.015 M139.880 70.049 L 138.522 71.527 140.000 70.169 C 140.813 69.422,141.478 68.757,141.478 68.691 C 141.478 68.390,141.144 68.674,139.880 70.049 M136.921 72.572 L 135.764 73.814 137.044 72.892 C 137.749 72.385,138.325 71.826,138.325 71.650 C 138.325 71.139,138.148 71.256,136.921 72.572 M131.774 77.537 C 128.708 80.672,126.456 83.238,122.562 88.037 C 121.803 88.971,120.536 90.516,119.746 91.469 C 116.558 95.314,109.593 106.367,106.114 113.103 C 104.714 115.813,103.439 118.207,103.280 118.424 C 103.120 118.640,102.419 120.325,101.720 122.167 C 101.022 124.010,100.194 126.100,99.881 126.811 C 99.567 127.523,99.316 128.321,99.323 128.585 C 99.336 129.068,99.992 127.578,102.146 122.167 C 102.794 120.542,103.474 118.946,103.657 118.621 C 103.841 118.296,104.890 116.250,105.989 114.074 C 107.088 111.899,108.562 109.232,109.265 108.149 C 109.967 107.066,110.970 105.387,111.493 104.420 C 112.016 103.452,112.913 102.039,113.485 101.281 C 114.058 100.522,115.127 98.926,115.860 97.734 C 116.594 96.542,118.084 94.414,119.170 93.005 C 120.257 91.596,121.281 90.266,121.445 90.049 C 121.609 89.833,122.858 88.350,124.221 86.755 C 125.584 85.160,127.090 83.316,127.567 82.657 C 128.044 81.997,130.055 79.800,132.037 77.773 C 134.018 75.747,135.528 74.089,135.392 74.089 C 135.257 74.089,133.629 75.640,131.774 77.537 M227.488 116.937 C 228.300 117.022,229.631 117.022,230.443 116.937 C 231.256 116.852,230.591 116.783,228.966 116.783 C 227.340 116.783,226.675 116.852,227.488 116.937 M288.768 116.939 C 289.690 117.022,291.197 117.022,292.118 116.939 C 293.039 116.856,292.286 116.788,290.443 116.788 C 288.601 116.788,287.847 116.856,288.768 116.939 M223.842 117.438 C 223.059 117.945,224.044 117.945,225.222 117.438 L 226.010 117.100 225.222 117.078 C 224.788 117.066,224.167 117.228,223.842 117.438 M232.709 117.438 C 233.794 117.905,234.180 117.905,233.892 117.438 C 233.758 117.222,233.260 117.057,232.785 117.072 C 231.952 117.099,231.949 117.112,232.709 117.438 M285.123 117.438 C 284.835 117.905,285.221 117.905,286.305 117.438 C 287.065 117.112,287.063 117.099,286.230 117.072 C 285.755 117.057,285.257 117.222,285.123 117.438 M220.240 118.996 C 218.184 120.288,215.410 123.742,214.055 126.700 C 213.559 127.783,213.008 128.943,212.831 129.277 C 212.655 129.611,212.409 131.029,212.285 132.430 C 212.054 135.046,212.234 134.633,213.149 130.443 C 214.114 126.028,218.075 120.493,221.538 118.720 C 222.480 118.238,222.985 117.844,222.660 117.845 C 222.335 117.847,221.246 118.364,220.240 118.996 M235.948 118.656 C 236.863 119.109,238.680 120.622,239.988 122.020 C 241.295 123.417,242.365 124.401,242.365 124.205 C 242.365 123.061,236.183 117.832,234.830 117.833 C 234.531 117.833,235.034 118.203,235.948 118.656 M281.039 119.909 C 275.970 124.076,272.306 135.715,273.511 143.824 C 273.689 145.026,274.030 147.333,274.268 148.950 C 276.185 161.978,288.730 168.429,299.015 161.676 C 300.153 160.929,301.084 160.200,301.084 160.056 C 301.084 159.912,301.488 159.353,301.981 158.814 C 303.071 157.621,304.631 155.005,304.631 154.368 C 304.631 154.113,304.224 154.664,303.727 155.592 C 298.905 164.608,287.043 166.753,280.145 159.856 C 270.657 150.367,272.272 126.043,282.856 119.032 C 283.852 118.372,284.415 117.836,284.107 117.840 C 283.799 117.845,282.418 118.776,281.039 119.909 M296.552 118.118 C 296.985 118.224,297.562 118.491,297.833 118.711 C 298.166 118.982,298.325 118.982,298.325 118.711 C 298.325 118.239,297.351 117.814,296.421 117.878 C 295.936 117.912,295.970 117.975,296.552 118.118 M299.513 119.914 C 300.058 120.395,301.166 121.656,301.976 122.717 C 302.786 123.777,303.448 124.479,303.448 124.275 C 303.448 123.536,299.446 119.001,298.818 119.027 C 298.655 119.034,298.968 119.433,299.513 119.914 M242.879 125.911 C 243.547 127.293,244.197 128.819,244.472 129.655 C 244.595 130.029,244.678 129.928,244.698 129.383 C 244.715 128.908,244.552 128.410,244.335 128.276 C 244.118 128.142,243.941 127.708,243.941 127.311 C 243.941 126.914,243.573 126.171,243.124 125.659 L 242.307 124.729 242.879 125.911 M304.636 127.310 C 304.640 127.408,304.914 128.197,305.246 129.064 L 305.849 130.640 305.626 129.273 C 305.452 128.202,304.610 126.533,304.636 127.310 M97.593 132.864 C 97.205 133.957,96.956 134.920,97.039 135.003 C 97.122 135.086,97.511 134.263,97.903 133.174 C 98.295 132.084,98.544 131.122,98.457 131.035 C 98.370 130.948,97.981 131.771,97.593 132.864 M306.040 132.414 C 306.172 133.389,306.416 135.074,306.582 136.158 L 306.884 138.128 306.922 136.355 C 306.943 135.379,306.699 133.695,306.380 132.611 L 305.800 130.640 306.040 132.414 M245.202 133.202 C 245.202 133.744,245.344 134.631,245.517 135.172 L 245.833 136.158 245.833 135.172 C 245.833 134.631,245.691 133.744,245.517 133.202 L 245.202 132.217 245.202 133.202 M340.373 140.099 C 340.460 143.133,340.700 147.018,340.906 148.733 C 341.385 152.715,341.385 160.637,340.906 167.465 C 340.396 174.742,340.140 183.487,340.502 181.281 C 341.343 176.151,341.791 156.911,341.291 147.389 C 340.715 136.412,340.135 131.806,340.373 140.099 M96.193 137.179 C 95.562 139.285,95.872 139.595,96.552 137.537 C 96.839 136.668,96.984 135.868,96.876 135.759 C 96.767 135.650,96.460 136.289,96.193 137.179 M211.439 138.424 C 211.300 139.995,211.351 142.522,211.553 144.039 C 211.899 146.639,211.923 146.474,211.970 141.182 C 212.025 135.017,211.831 134.011,211.439 138.424 M245.830 140.887 C 245.678 143.488,245.461 146.325,245.350 147.192 C 245.239 148.059,245.413 147.616,245.737 146.207 C 246.101 144.628,246.285 142.209,246.218 139.901 L 246.108 136.158 245.830 140.887 M95.074 141.153 C 94.400 143.021,94.459 143.496,95.190 142.094 C 95.521 141.458,95.742 140.678,95.680 140.362 C 95.617 140.045,95.345 140.401,95.074 141.153 M93.869 145.161 C 93.610 145.875,93.407 146.713,93.418 147.023 C 93.428 147.333,93.707 146.815,94.037 145.873 C 94.367 144.931,94.569 144.093,94.487 144.011 C 94.405 143.929,94.127 144.447,93.869 145.161 M306.296 146.224 C 306.030 147.075,305.833 148.261,305.859 148.861 C 305.891 149.632,305.952 149.721,306.068 149.163 C 306.159 148.729,306.429 147.616,306.668 146.688 C 307.224 144.538,306.934 144.177,306.296 146.224 M212.044 147.880 C 211.978 150.843,215.161 157.568,217.794 160.031 C 224.402 166.212,236.005 165.703,240.991 159.013 C 242.527 156.953,243.069 156.075,243.548 154.877 C 243.764 154.335,244.104 153.607,244.302 153.260 C 244.501 152.912,244.765 151.760,244.890 150.698 L 245.116 148.768 244.589 150.818 C 242.201 160.112,235.256 164.999,226.392 163.621 C 219.491 162.548,215.080 158.019,212.851 149.716 C 212.399 148.034,212.057 147.256,212.044 147.880 M92.673 150.153 C 92.396 151.496,92.253 152.680,92.355 152.782 C 92.600 153.027,93.501 148.679,93.318 148.132 C 93.241 147.900,92.951 148.810,92.673 150.153 M305.105 151.769 C 304.825 152.665,304.675 153.476,304.771 153.573 C 305.013 153.814,305.907 151.022,305.745 150.534 C 305.672 150.317,305.384 150.873,305.105 151.769 M91.733 154.877 C 91.613 155.852,91.377 156.990,91.208 157.405 C 90.999 157.918,91.040 158.072,91.339 157.888 C 91.821 157.590,92.401 154.442,92.125 153.621 C 92.029 153.336,91.853 153.901,91.733 154.877 M90.740 160.591 C 90.744 161.458,90.825 161.766,90.919 161.276 C 91.013 160.786,91.010 160.077,90.911 159.700 C 90.813 159.323,90.735 159.724,90.740 160.591 M90.077 163.378 C 89.932 163.955,89.903 164.517,90.011 164.625 C 90.119 164.733,90.327 164.350,90.471 163.772 C 90.616 163.194,90.646 162.633,90.538 162.525 C 90.430 162.416,90.222 162.800,90.077 163.378 M89.587 167.685 C 89.589 169.202,89.660 169.774,89.746 168.957 C 89.831 168.139,89.830 166.898,89.743 166.198 C 89.655 165.499,89.586 166.167,89.587 167.685 M88.861 172.723 C 88.713 173.904,88.665 175.205,88.754 175.613 C 88.842 176.021,89.053 175.144,89.221 173.664 C 89.390 172.183,89.438 170.883,89.328 170.773 C 89.219 170.664,89.008 171.541,88.861 172.723 M88.394 179.704 C 88.394 180.897,88.468 181.384,88.558 180.788 C 88.648 180.192,88.648 179.217,88.558 178.621 C 88.468 178.025,88.394 178.512,88.394 179.704 M87.792 188.966 C 87.635 192.433,87.417 196.158,87.309 197.241 C 87.200 198.325,87.378 197.704,87.704 195.862 C 88.079 193.743,88.257 190.702,88.188 187.586 L 88.079 182.660 87.792 188.966 M339.783 184.809 C 339.634 188.142,338.883 195.278,338.454 197.438 C 338.217 198.631,337.885 201.025,337.716 202.759 C 337.405 205.942,336.582 211.186,335.767 215.172 C 335.523 216.365,335.164 218.670,334.968 220.296 C 334.772 221.921,334.332 224.493,333.990 226.010 C 333.647 227.527,333.214 229.567,333.027 230.542 C 332.840 231.517,332.511 232.759,332.296 233.300 C 332.080 233.842,331.692 235.527,331.432 237.044 C 331.172 238.562,330.804 240.335,330.613 240.985 C 330.163 242.516,328.311 249.821,327.665 252.611 C 327.389 253.803,326.807 255.842,326.371 257.143 C 325.935 258.443,325.133 261.015,324.590 262.857 C 324.046 264.700,323.145 267.430,322.589 268.925 C 322.032 270.420,321.570 271.927,321.563 272.275 C 321.556 272.622,321.207 273.616,320.788 274.483 C 320.369 275.350,320.021 276.275,320.013 276.538 C 320.006 276.802,319.749 277.600,319.442 278.312 C 319.135 279.024,318.603 280.253,318.259 281.045 C 317.916 281.836,317.635 282.681,317.635 282.922 C 317.635 283.163,317.471 283.668,317.270 284.045 C 316.282 285.892,315.201 288.535,315.366 288.699 C 316.412 289.745,327.049 258.138,330.229 244.532 C 330.483 243.448,330.848 241.941,331.040 241.182 C 331.233 240.424,331.674 238.473,332.020 236.847 C 332.366 235.222,332.808 233.271,333.003 232.512 C 333.198 231.754,333.616 229.980,333.931 228.571 C 334.247 227.163,334.699 225.165,334.937 224.132 C 335.175 223.100,335.369 221.708,335.369 221.040 C 335.369 220.372,335.791 217.581,336.307 214.839 C 337.611 207.907,338.127 204.403,338.132 202.456 C 338.135 201.539,338.401 199.918,338.723 198.854 C 339.046 197.790,339.310 195.981,339.310 194.834 C 339.310 193.687,339.496 191.882,339.723 190.824 C 339.950 189.766,340.074 187.584,339.998 185.977 C 339.921 184.340,339.827 183.826,339.783 184.809 M86.635 204.138 C 86.496 205.764,86.271 207.714,86.135 208.473 C 85.905 209.754,85.932 209.732,86.508 208.168 C 86.909 207.081,87.087 205.546,87.009 203.833 L 86.889 201.182 86.635 204.138 M85.165 215.466 C 84.366 219.247,83.116 223.998,82.729 224.724 C 82.169 225.774,82.320 226.102,82.968 225.245 C 83.286 224.824,83.547 224.165,83.547 223.780 C 83.547 223.396,83.798 222.499,84.106 221.787 C 84.688 220.440,86.054 213.607,85.793 213.346 C 85.711 213.265,85.429 214.218,85.165 215.466 M79.420 232.709 C 76.329 238.935,69.190 244.976,58.325 250.562 C 52.184 253.720,50.500 254.413,41.922 257.313 C 33.876 260.033,31.158 261.779,28.683 265.813 C 27.738 267.353,26.390 270.854,26.418 271.696 C 26.440 272.359,27.557 270.226,27.572 269.491 C 27.661 265.326,33.187 260.604,40.657 258.309 C 42.463 257.755,44.296 257.137,44.729 256.937 C 45.554 256.556,48.278 255.574,50.178 254.972 C 50.791 254.778,53.451 253.520,56.090 252.178 C 58.728 250.835,61.419 249.470,62.069 249.143 C 64.181 248.081,68.716 245.013,70.936 243.145 C 72.128 242.142,73.519 240.980,74.027 240.562 C 76.156 238.811,81.507 230.733,81.118 229.856 C 81.045 229.691,80.281 230.975,79.420 232.709 M26.101 273.892 C 26.101 274.650,26.182 274.961,26.282 274.581 C 26.381 274.202,26.381 273.581,26.282 273.202 C 26.182 272.823,26.101 273.133,26.101 273.892 M26.466 276.059 C 26.465 276.493,26.703 277.468,26.995 278.227 C 27.461 279.437,27.528 279.485,27.538 278.621 C 27.545 278.079,27.307 277.103,27.009 276.453 C 26.598 275.555,26.467 275.461,26.466 276.059 M27.597 280.234 C 27.584 281.015,31.010 285.903,32.664 287.463 C 34.501 289.195,34.145 288.541,31.987 286.218 C 30.939 285.090,29.525 283.141,28.845 281.887 C 28.164 280.632,27.602 279.888,27.597 280.234 M132.217 283.535 C 131.567 284.068,130.840 284.510,130.603 284.518 C 130.366 284.526,129.834 284.914,129.421 285.381 L 128.670 286.230 129.852 285.497 C 130.502 285.094,131.457 284.445,131.974 284.057 C 133.553 282.870,134.138 283.116,133.808 284.828 C 133.206 287.942,133.208 288.636,133.813 286.761 C 134.944 283.259,134.254 281.865,132.217 283.535 M125.146 287.894 C 124.726 288.213,124.559 288.473,124.775 288.473 C 124.992 288.473,125.514 288.213,125.935 287.894 C 126.355 287.576,126.522 287.316,126.305 287.316 C 126.089 287.316,125.567 287.576,125.146 287.894 M35.650 289.743 C 36.308 290.333,37.004 290.821,37.196 290.827 C 37.388 290.833,37.033 290.451,36.408 289.979 C 34.661 288.660,34.323 288.554,35.650 289.743 M122.956 288.871 C 122.631 289.065,121.693 289.521,120.873 289.885 C 120.052 290.249,119.448 290.614,119.531 290.697 C 119.721 290.887,124.138 288.948,124.138 288.675 C 124.138 288.383,123.636 288.466,122.956 288.871 M132.513 291.289 C 130.586 299.549,122.788 307.911,108.898 316.612 C 102.593 320.561,98.167 323.638,96.480 325.244 C 94.044 327.563,91.823 330.166,91.823 330.701 C 91.823 330.949,92.331 330.461,92.952 329.616 C 94.156 327.977,98.657 323.547,99.118 323.547 C 99.270 323.547,100.040 323.046,100.830 322.435 C 102.038 321.499,107.941 317.627,110.260 316.248 C 116.912 312.293,125.002 305.505,127.561 301.731 C 128.170 300.833,128.761 300.010,128.875 299.901 C 129.175 299.616,130.539 297.502,131.162 296.355 C 131.947 294.911,133.269 290.489,133.127 289.785 C 133.060 289.451,132.783 290.128,132.513 291.289 M314.414 290.345 C 313.434 292.729,311.086 297.712,309.020 301.796 C 308.394 303.032,302.807 312.685,301.962 313.990 C 301.646 314.478,301.485 314.877,301.605 314.877 C 302.048 314.877,308.186 304.265,310.722 299.113 C 312.163 296.187,313.510 293.485,313.715 293.108 C 314.231 292.165,315.215 289.261,315.019 289.261 C 314.932 289.261,314.659 289.749,314.414 290.345 M38.593 291.459 C 40.109 292.574,48.346 295.825,48.716 295.455 C 48.809 295.362,47.906 294.978,46.709 294.602 C 45.513 294.225,44.434 293.756,44.312 293.560 C 44.191 293.363,43.858 293.202,43.573 293.202 C 43.287 293.202,42.012 292.720,40.739 292.130 C 37.627 290.689,37.485 290.645,38.593 291.459 M117.265 291.441 C 116.291 292.177,116.931 292.169,118.227 291.429 C 118.798 291.102,118.964 290.865,118.621 290.864 C 118.296 290.863,117.685 291.123,117.265 291.441 M113.695 292.687 C 110.742 293.793,110.243 294.020,110.404 294.180 C 110.580 294.357,115.812 292.595,116.167 292.240 C 116.553 291.854,115.324 292.076,113.695 292.687 M107.389 294.961 C 105.813 295.683,106.593 295.700,108.571 294.987 C 109.438 294.674,109.793 294.419,109.360 294.419 C 108.926 294.420,108.039 294.663,107.389 294.961 M50.246 296.011 C 51.442 296.392,61.736 298.322,62.463 298.302 C 63.523 298.272,59.519 297.154,58.325 297.146 C 57.567 297.141,55.472 296.784,53.670 296.352 C 50.327 295.551,48.109 295.330,50.246 296.011 M102.266 296.166 C 101.182 296.467,99.172 296.836,97.799 296.986 C 96.427 297.136,94.653 297.505,93.859 297.805 C 92.538 298.305,92.516 298.337,93.596 298.181 C 99.440 297.338,107.245 295.618,105.222 295.619 C 104.680 295.619,103.350 295.866,102.266 296.166 M70.739 298.751 C 73.685 299.235,83.596 299.224,85.714 298.735 C 86.806 298.483,85.957 298.450,82.956 298.627 C 78.010 298.919,78.071 298.919,72.512 298.600 C 68.995 298.398,68.729 298.421,70.739 298.751 M225.025 300.646 C 221.411 301.814,219.434 303.355,211.187 311.430 C 203.393 319.061,198.915 323.155,196.762 324.615 C 195.961 325.159,194.854 326.010,194.303 326.506 C 190.980 329.498,183.249 335.556,182.337 335.883 C 182.081 335.975,181.962 336.150,182.073 336.272 C 182.306 336.530,186.505 333.382,194.286 327.118 C 200.845 321.837,204.387 318.651,211.823 311.343 C 222.985 300.373,227.910 298.301,230.609 303.442 C 231.148 304.469,231.330 304.613,231.330 304.012 C 231.330 301.919,227.467 299.857,225.025 300.646 M231.377 308.065 C 231.299 313.453,228.761 319.279,223.259 326.700 C 203.160 353.806,215.824 374.290,246.700 364.615 C 259.095 360.731,276.781 347.500,287.636 333.990 C 288.855 332.473,290.048 331.054,290.287 330.837 C 290.975 330.214,295.607 324.026,297.752 320.866 C 301.023 316.044,301.501 315.270,301.188 315.301 C 301.022 315.317,299.734 317.100,298.325 319.264 C 290.017 332.023,276.467 346.418,265.277 354.373 C 262.118 356.618,254.275 361.379,253.734 361.379 C 253.521 361.379,252.960 361.596,252.486 361.860 C 251.437 362.447,249.627 363.151,246.502 364.190 C 244.221 364.949,243.272 365.136,236.847 366.096 C 217.477 368.991,208.243 355.201,217.460 337.143 C 219.633 332.884,221.333 330.054,223.256 327.488 C 229.538 319.107,232.657 311.593,231.802 306.902 L 231.424 304.828 231.377 308.065 M90.732 333.793 C 90.732 334.552,90.813 334.862,90.912 334.483 C 91.011 334.103,91.011 333.483,90.912 333.103 C 90.813 332.724,90.732 333.034,90.732 333.793 M90.368 337.537 C 90.371 338.837,90.444 339.322,90.532 338.614 C 90.620 337.905,90.618 336.841,90.528 336.249 C 90.438 335.657,90.366 336.236,90.368 337.537 M179.704 337.878 C 178.729 338.579,175.892 340.380,173.399 341.882 C 170.906 343.384,168.778 344.705,168.670 344.819 C 168.562 344.932,167.278 345.633,165.817 346.376 C 164.357 347.119,163.234 347.799,163.322 347.887 C 163.771 348.335,180.768 338.095,181.476 336.949 C 181.826 336.382,181.683 336.457,179.704 337.878 M91.832 344.362 C 91.818 345.135,93.881 347.952,95.827 349.817 C 104.118 357.767,126.299 359.984,145.419 354.775 C 148.317 353.985,155.569 351.541,157.044 350.856 C 158.937 349.978,156.728 350.473,154.089 351.519 C 152.897 351.991,151.300 352.549,150.542 352.759 C 149.783 352.969,148.808 353.286,148.374 353.464 C 137.993 357.718,113.888 358.270,105.359 354.448 C 104.676 354.142,103.919 353.892,103.676 353.892 C 101.250 353.892,94.003 348.230,92.484 345.148 C 92.130 344.430,91.837 344.076,91.832 344.362 M160.667 348.744 C 159.279 349.392,157.979 350.345,158.483 350.345 C 158.717 350.345,162.454 348.402,162.726 348.139 C 163.089 347.788,162.084 348.083,160.667 348.744 " stroke="none" fill="#676173" fill-rule="evenodd" data-index="5"/><path id="path6" d="M219.803 35.352 C 220.291 35.446,221.089 35.446,221.576 35.352 C 222.064 35.258,221.665 35.181,220.690 35.181 C 219.714 35.181,219.315 35.258,219.803 35.352 M226.108 35.362 C 227.030 35.445,228.537 35.445,229.458 35.362 C 230.379 35.279,229.626 35.212,227.783 35.212 C 225.941 35.212,225.187 35.279,226.108 35.362 M233.601 35.747 C 234.091 35.841,234.800 35.837,235.177 35.739 C 235.554 35.640,235.153 35.563,234.286 35.567 C 233.419 35.572,233.110 35.652,233.601 35.747 M206.601 36.922 C 206.980 37.021,207.601 37.021,207.980 36.922 C 208.360 36.823,208.049 36.742,207.291 36.742 C 206.532 36.742,206.222 36.823,206.601 36.922 M243.448 36.928 C 243.936 37.022,244.734 37.022,245.222 36.928 C 245.709 36.834,245.310 36.758,244.335 36.758 C 243.360 36.758,242.961 36.834,243.448 36.928 M316.059 76.182 C 316.059 76.250,316.635 76.827,317.340 77.463 L 318.621 78.621 317.463 77.340 C 316.384 76.146,316.059 75.878,316.059 76.182 M239.015 121.773 C 240.082 122.857,241.044 123.744,241.153 123.744 C 241.261 123.744,240.476 122.857,239.409 121.773 C 238.341 120.690,237.379 119.803,237.271 119.803 C 237.163 119.803,237.947 120.690,239.015 121.773 M340.605 132.611 C 340.608 133.695,340.685 134.091,340.775 133.492 C 340.866 132.893,340.864 132.006,340.770 131.522 C 340.676 131.037,340.602 131.527,340.605 132.611 M212.521 135.961 C 212.521 136.936,212.598 137.335,212.692 136.847 C 212.786 136.360,212.786 135.562,212.692 135.074 C 212.598 134.586,212.521 134.985,212.521 135.961 M341.380 138.522 C 341.385 139.389,341.465 139.697,341.560 139.207 C 341.654 138.717,341.650 138.008,341.552 137.631 C 341.453 137.254,341.376 137.655,341.380 138.522 M274.398 141.675 C 274.401 142.759,274.478 143.155,274.569 142.556 C 274.659 141.957,274.657 141.070,274.563 140.586 C 274.470 140.101,274.395 140.591,274.398 141.675 M341.797 147.980 C 341.799 149.281,341.873 149.765,341.960 149.057 C 342.048 148.349,342.046 147.285,341.956 146.692 C 341.867 146.100,341.795 146.680,341.797 147.980 M228.478 163.431 C 228.968 163.526,229.677 163.522,230.054 163.423 C 230.431 163.325,230.030 163.248,229.163 163.252 C 228.296 163.256,227.987 163.337,228.478 163.431 M89.177 166.897 C 89.180 167.980,89.256 168.377,89.347 167.778 C 89.437 167.179,89.435 166.292,89.341 165.807 C 89.248 165.323,89.174 165.813,89.177 166.897 M341.813 168.276 C 341.813 170.118,341.880 170.872,341.963 169.951 C 342.046 169.030,342.046 167.522,341.963 166.601 C 341.880 165.680,341.813 166.433,341.813 168.276 M88.008 177.340 C 88.008 178.749,88.079 179.325,88.167 178.621 C 88.254 177.916,88.254 176.764,88.167 176.059 C 88.079 175.355,88.008 175.931,88.008 177.340 M341.399 178.128 C 341.399 179.320,341.473 179.808,341.563 179.212 C 341.653 178.616,341.653 177.640,341.563 177.044 C 341.473 176.448,341.399 176.936,341.399 178.128 M340.625 186.404 C 340.625 188.030,340.695 188.695,340.780 187.882 C 340.865 187.069,340.865 185.739,340.780 184.926 C 340.695 184.113,340.625 184.778,340.625 186.404 M87.223 188.177 C 87.225 189.695,87.296 190.267,87.381 189.449 C 87.467 188.632,87.465 187.390,87.378 186.691 C 87.291 185.991,87.221 186.660,87.223 188.177 M338.622 201.970 C 338.626 202.837,338.707 203.146,338.801 202.656 C 338.895 202.165,338.892 201.456,338.793 201.079 C 338.694 200.702,338.617 201.103,338.622 201.970 M86.413 202.562 C 86.413 203.537,86.490 203.936,86.584 203.448 C 86.677 202.961,86.677 202.163,86.584 201.675 C 86.490 201.187,86.413 201.586,86.413 202.562 M337.825 208.867 C 337.825 209.626,337.907 209.936,338.006 209.557 C 338.105 209.177,338.105 208.557,338.006 208.177 C 337.907 207.798,337.825 208.108,337.825 208.867 M333.839 231.002 C 333.814 231.364,333.691 231.985,333.566 232.382 C 333.351 233.066,333.363 233.067,333.790 232.401 C 334.038 232.015,334.160 231.395,334.062 231.022 C 333.902 230.412,333.880 230.410,333.839 231.002 M25.738 273.695 C 25.740 274.995,25.814 275.480,25.901 274.771 C 25.989 274.063,25.987 272.999,25.897 272.407 C 25.807 271.815,25.736 272.394,25.738 273.695 M30.739 286.232 C 30.739 286.300,31.315 286.876,32.020 287.512 L 33.300 288.670 32.143 287.389 C 31.064 286.195,30.739 285.927,30.739 286.232 M66.113 298.998 C 66.603 299.092,67.313 299.089,67.689 298.990 C 68.066 298.891,67.665 298.814,66.798 298.819 C 65.931 298.823,65.623 298.904,66.113 298.998 M88.177 298.997 C 88.665 299.091,89.463 299.091,89.951 298.997 C 90.438 298.903,90.039 298.827,89.064 298.827 C 88.089 298.827,87.690 298.903,88.177 298.997 M76.174 299.800 C 77.646 299.876,79.952 299.875,81.297 299.799 C 82.643 299.722,81.438 299.660,78.621 299.661 C 75.803 299.661,74.702 299.724,76.174 299.800 M121.552 306.700 L 120.394 307.980 121.675 306.823 C 122.869 305.744,123.137 305.419,122.832 305.419 C 122.765 305.419,122.188 305.995,121.552 306.700 M274.064 348.473 L 272.906 349.754 274.187 348.596 C 274.892 347.960,275.468 347.383,275.468 347.315 C 275.468 347.011,275.143 347.279,274.064 348.473 M212.536 350.542 C 212.538 351.842,212.612 352.327,212.699 351.619 C 212.787 350.910,212.785 349.846,212.695 349.254 C 212.605 348.662,212.534 349.241,212.536 350.542 M118.939 358.127 C 121.606 358.195,125.863 358.195,128.397 358.127 C 130.931 358.058,128.749 358.002,123.547 358.002 C 118.345 358.003,116.271 358.059,118.939 358.127 M252.611 362.759 C 252.069 363.068,251.803 363.322,252.020 363.322 C 252.236 363.322,252.857 363.068,253.399 362.759 C 253.941 362.449,254.207 362.195,253.990 362.195 C 253.773 362.195,253.153 362.449,252.611 362.759 M230.655 367.582 C 231.909 367.661,233.860 367.660,234.990 367.581 C 236.120 367.501,235.094 367.437,232.709 367.438 C 230.325 367.439,229.401 367.504,230.655 367.582 " stroke="none" fill="#c4c4d2" fill-rule="evenodd" data-index="6"/><path id="path8" d="M212.513 143.645 C 212.518 144.512,212.598 144.821,212.693 144.330 C 212.787 143.840,212.783 143.131,212.685 142.754 C 212.586 142.377,212.509 142.778,212.513 143.645 M341.766 172.611 C 341.766 173.369,341.847 173.680,341.947 173.300 C 342.046 172.921,342.046 172.300,341.947 171.921 C 341.847 171.542,341.766 171.852,341.766 172.611 M132.694 284.926 C 132.807 285.360,132.947 285.714,133.005 285.714 C 133.063 285.714,133.203 285.360,133.316 284.926 C 133.445 284.434,133.328 284.138,133.005 284.138 C 132.682 284.138,132.565 284.434,132.694 284.926 M63.354 298.998 C 63.845 299.092,64.554 299.089,64.931 298.990 C 65.307 298.891,64.906 298.814,64.039 298.819 C 63.172 298.823,62.864 298.904,63.354 298.998 " stroke="none" fill="#cccad4" fill-rule="evenodd" data-index="8"/></g></svg>